G04*
G04 #@! TF.GenerationSoftware,Altium Limited,Altium Designer,24.4.1 (13)*
G04*
G04 Layer_Color=65535*
%FSLAX44Y44*%
%MOMM*%
G71*
G04*
G04 #@! TF.SameCoordinates,0AE1F543-7B87-48E8-90D5-0DFDE8F72AC0*
G04*
G04*
G04 #@! TF.FilePolarity,Positive*
G04*
G01*
G75*
%ADD10C,0.3000*%
%ADD11C,0.1600*%
%ADD12C,0.1530*%
%ADD13C,0.2000*%
D10*
X13000Y308000D02*
G03*
X36000Y278000I50323J14765D01*
G01*
X241000Y58000D02*
G03*
X241000Y105000I-67000J23500D01*
G01*
X174000Y94000D02*
G03*
X190000Y53000I63779J1267D01*
G01*
X106000Y152000D02*
G03*
X95000Y141000I-0J-11000D01*
G01*
X158886Y132992D02*
G03*
X106000Y152000I-47503J-49092D01*
G01*
X309825Y171619D02*
G03*
X296000Y178000I-11368J-6462D01*
G01*
Y178000D02*
G03*
X248654Y144725I14981J-71638D01*
G01*
X73000Y245000D02*
G03*
X115000Y238000I24500J17500D01*
G01*
X73000Y245000D02*
G03*
X36000Y278000I-123533J-101264D01*
G01*
X345000Y387000D02*
G03*
X294000Y317000I348298J-307338D01*
G01*
X277000Y294000D02*
G03*
X294000Y317000I-54283J57905D01*
G01*
X277000Y294000D02*
G03*
X263000Y275000I25300J-33300D01*
G01*
D02*
G03*
X265000Y253000I32350J-8150D01*
G01*
X265000D02*
G03*
X332000Y210000I70726J36504D01*
G01*
X185000Y46000D02*
G03*
X200000Y34000I185480J216474D01*
G01*
X235000Y36000D02*
G03*
X247000Y51000I-32500J38300D01*
G01*
X235000Y36000D02*
G03*
X225000Y25000I55499J-60499D01*
G01*
X200000Y34000D02*
G03*
X217000Y23000I77246J100743D01*
G01*
X225000Y25000D02*
G03*
X226000Y21000I2500J-1500D01*
G01*
X218000Y19000D02*
G03*
X217000Y23000I-2500J1500D01*
G01*
X232000Y14000D02*
G03*
X232000Y18000I-1500J2000D01*
G01*
X214000Y13000D02*
G03*
X215000Y11000I1500J-500D01*
G01*
D02*
G03*
X232000Y14000I4500J24167D01*
G01*
X226000Y21000D02*
X232000Y18000D01*
X214000Y13000D02*
X218000Y19000D01*
D11*
X152000Y121000D02*
G03*
X154000Y137000I-23000J11000D01*
G01*
X299000Y134000D02*
G03*
X299000Y177000I-21500J21500D01*
G01*
X259000Y134000D02*
G03*
X299000Y134000I20000J20000D01*
G01*
X252000Y147000D02*
G03*
X259000Y134000I21700J3300D01*
G01*
X105000Y151000D02*
G03*
X118000Y111000I26500J-13500D01*
G01*
Y111000D02*
G03*
X152000Y121000I12000J22000D01*
G01*
X249000Y216000D02*
G03*
X239000Y162000I99048J-46268D01*
G01*
X163000Y148000D02*
G03*
X137000Y199000I-107715J-22786D01*
G01*
D12*
X250000Y40000D02*
G03*
X250000Y40000I-1000J0D01*
G01*
X244000Y33000D02*
G03*
X244000Y33000I-1000J0D01*
G01*
X238000Y26000D02*
G03*
X238000Y26000I-1000J0D01*
G01*
X206000Y22000D02*
G03*
X206000Y22000I-1000J0D01*
G01*
X199000Y26000D02*
G03*
X199000Y26000I-1000J0D01*
G01*
X191000Y31000D02*
G03*
X191000Y31000I-1000J0D01*
G01*
X185000Y37000D02*
G03*
X185000Y37000I-1000J0D01*
G01*
X255000Y48000D02*
G03*
X255000Y48000I-1000J0D01*
G01*
D13*
X369114Y390173D02*
X369214Y383935D01*
X368744Y377712D02*
X369214Y383935D01*
X367826Y399435D02*
X368443Y396377D01*
X369114Y390173D01*
X368226Y374636D02*
X368744Y377712D01*
X367730Y370044D02*
X368194Y374405D01*
X366286Y361391D02*
X367730Y370044D01*
X364331Y352839D02*
X366286Y361391D01*
X361759Y401927D02*
X363601Y402220D01*
X358140Y401037D02*
X361759Y401927D01*
X354607Y399848D02*
X358140Y401037D01*
X351185Y398368D02*
X354607Y399848D01*
X361873Y344419D02*
X364331Y352839D01*
X360396Y340288D02*
X361873Y344419D01*
X347899Y396608D02*
X351185Y398368D01*
X359182Y336353D02*
X360342Y340125D01*
X357214Y328502D02*
X359127Y336157D01*
X355793Y320465D02*
X357157Y328236D01*
X354946Y312347D02*
X355755Y320196D01*
X354735Y308203D02*
X354930Y312144D01*
X354580Y300310D02*
X354750Y305426D01*
X354731Y307985D02*
X354750Y305426D01*
X354201Y295206D02*
X354580Y300310D01*
X353615Y290121D02*
X354201Y295206D01*
X353236Y287702D02*
X353615Y290121D01*
X352671Y285095D02*
X353236Y287702D01*
X351650Y279502D02*
X352645Y284970D01*
X350872Y273827D02*
X351623Y279333D01*
X350348Y268122D02*
X350853Y273657D01*
X350180Y265235D02*
X350339Y267994D01*
X344771Y394579D02*
X347899Y396608D01*
X341824Y392297D02*
X344771Y394579D01*
X339077Y389776D02*
X341824Y392297D01*
X337814Y388406D02*
X339077Y389776D01*
X332439Y383271D02*
X337641Y388230D01*
X322527Y372860D02*
X332439Y383271D01*
X313131Y361981D02*
X322527Y372860D01*
X304274Y350659D02*
X313131Y361981D01*
X300125Y344790D02*
X304274Y350659D01*
X276092Y313742D02*
X300026Y344657D01*
X275298Y312587D02*
X276092Y313742D01*
X273337Y310028D02*
X275178Y312422D01*
X271157Y307562D02*
X273164Y309819D01*
X268809Y305257D02*
X270970Y307366D01*
X267524Y304123D02*
X268659Y305118D01*
X350037Y263053D02*
X350180Y265235D01*
X349488Y258685D02*
X350037Y263053D01*
X348679Y254358D02*
X349488Y258685D01*
X347612Y250086D02*
X348679Y254358D01*
X346292Y245887D02*
X347612Y250086D01*
X344723Y241773D02*
X346292Y245887D01*
X342912Y237761D02*
X344723Y241773D01*
X264352Y301355D02*
X267516Y304116D01*
X258508Y295325D02*
X264352Y301355D01*
X253189Y288825D02*
X258508Y295325D01*
X248434Y281904D02*
X253189Y288825D01*
X246354Y278256D02*
X248434Y281904D01*
X244093Y275622D02*
X245867Y277583D01*
X239660Y271863D02*
X243712Y275256D01*
X340863Y233864D02*
X342912Y237761D01*
X339858Y190534D02*
X341109Y188254D01*
X339725Y231980D02*
X340863Y233864D01*
X338438Y229224D02*
X339518Y231590D01*
X342913Y184895D02*
X343161Y183632D01*
X343210Y182345D01*
X341845Y187230D02*
X342470Y186105D01*
X342913Y184895D01*
X336594Y223985D02*
X338306Y228894D01*
X335376Y218445D02*
X336466Y223528D01*
X334852Y212796D02*
X335305Y217976D01*
X334840Y212322D02*
X335030Y207127D01*
X336014Y201060D02*
X337474Y196070D01*
X337635Y195624D02*
X339701Y190854D01*
X335077Y206655D02*
X335909Y201523D01*
X343058Y181066D02*
X343210Y182345D01*
X342709Y179827D02*
X343058Y181066D01*
X342171Y178657D02*
X342709Y179827D01*
X340783Y176498D02*
X341768Y178050D01*
X339034Y172622D02*
X340510Y175985D01*
X338651Y157978D02*
X338798Y150840D01*
X338207Y161486D02*
X338651Y157978D01*
X338027Y168295D02*
X338797Y171886D01*
X338195Y143725D02*
X338798Y150840D01*
X337910Y163853D02*
X337942Y167526D01*
X337949Y163274D02*
X338207Y161486D01*
X336850Y136714D02*
X338195Y143725D01*
X334776Y129882D02*
X336850Y136714D01*
X331996Y123305D02*
X334776Y129882D01*
X328542Y117057D02*
X331996Y123305D01*
X324452Y111205D02*
X328542Y117057D01*
X322111Y108510D02*
X324452Y111205D01*
X320065Y106098D02*
X322081Y108475D01*
X315434Y101928D02*
X320065Y106098D01*
X310285Y98418D02*
X315434Y101928D01*
X304711Y95629D02*
X310285Y98418D01*
X301763Y94622D02*
X304711Y95629D01*
X298871Y93095D02*
X301153Y94352D01*
X294256Y89895D02*
X298524Y92879D01*
X290030Y85994D02*
X293833Y89553D01*
X286400Y81534D02*
X289661Y85596D01*
X283438Y76604D02*
X286091Y81087D01*
X281204Y71305D02*
X283195Y76118D01*
X279744Y65743D02*
X281033Y70789D01*
X279086Y60030D02*
X279647Y65208D01*
X279060Y57206D02*
X279064Y59623D01*
X278741Y54034D02*
X279060Y57206D01*
X277338Y47425D02*
X278741Y54034D01*
X275226Y41008D02*
X277338Y47425D01*
X272431Y34858D02*
X275226Y41008D01*
X270715Y31964D02*
X272431Y34858D01*
X268977Y29076D02*
X270715Y31964D01*
X264849Y23719D02*
X268977Y29076D01*
X260134Y18869D02*
X264849Y23719D01*
X254895Y14592D02*
X260134Y18869D01*
X249201Y10943D02*
X254895Y14592D01*
X243126Y7971D02*
X249201Y10943D01*
X236750Y5713D02*
X243126Y7971D01*
X126103Y272385D02*
X131799Y270302D01*
X234477Y268870D02*
X239081Y271463D01*
X114736Y278039D02*
X120056Y275127D01*
X120313Y274998D02*
X125837Y272494D01*
X228832Y266878D02*
X233834Y268583D01*
X144415Y267243D02*
X150432Y266486D01*
X132072Y270214D02*
X137908Y268564D01*
X138188Y268496D02*
X144131Y267290D01*
X73035Y303624D02*
X84400Y297305D01*
X95551Y290614D01*
X27804Y325451D02*
X67300Y306570D01*
X73035Y303624D01*
X106476Y283560D02*
X111819Y279855D01*
X111976Y279751D02*
X114550Y278148D01*
X95551Y290614D02*
X106476Y283560D01*
X225724Y266242D02*
X228321Y266742D01*
X160012Y266173D02*
X225000Y266173D01*
X150719Y266461D02*
X156776Y266158D01*
X156992Y266153D02*
X160012Y266173D01*
X75563Y227827D02*
X76421Y226697D01*
X76848Y225988D02*
X77443Y224701D01*
X72306Y230618D02*
X74356Y229016D01*
X54350Y243353D02*
X57206Y241133D01*
X59249Y239834D01*
X43289Y253753D02*
X48657Y248380D01*
X54350Y243353D01*
X63737Y236849D02*
X67989Y233847D01*
X68075Y233785D02*
X72242Y230667D01*
X59316Y239791D02*
X63650Y236909D01*
X13097Y329375D02*
X14524Y329202D01*
X16236Y328982D01*
X7296Y329216D02*
X10192Y329439D01*
X13097Y329375D01*
X22990Y327338D02*
X26258Y326147D01*
X27804Y325451D01*
X16236Y328982D02*
X19643Y328285D01*
X22990Y327338D01*
X4435Y328709D02*
X7296Y329216D01*
X3564Y328464D02*
X4435Y328709D01*
X3115Y325420D02*
X3422Y327884D01*
X3094Y322937D02*
X3115Y325420D01*
X3360Y320469D02*
X3911Y318048D01*
X4737Y315706D01*
X3094Y322937D02*
X3360Y320469D01*
X22022Y285038D02*
X25474Y278273D01*
X29343Y271736D01*
X19221Y291346D02*
X20481Y288592D01*
X20511Y288523D02*
X22022Y285038D01*
X33613Y265455D02*
X38268Y259453D01*
X43289Y253753D01*
X29343Y271736D02*
X33613Y265455D01*
X7171Y311388D02*
X7959Y310428D01*
X8138Y310191D02*
X9872Y307707D01*
X4737Y315706D02*
X5829Y313476D01*
X7171Y311388D01*
X13328Y302318D02*
X16333Y297060D01*
X16427Y296886D02*
X19157Y291479D01*
X9954Y307584D02*
X13226Y302487D01*
X112231Y67344D02*
X114872Y66727D01*
X115603Y66475D02*
X119902Y64492D01*
X102188Y71407D02*
X107105Y69117D01*
X112231Y67344D01*
X137018Y55217D02*
X144971Y50080D01*
X145133Y49969D02*
X152811Y44431D01*
X120035Y64428D02*
X128472Y60134D01*
X128645Y60041D02*
X136850Y55319D01*
X82466Y89599D02*
X85616Y85184D01*
X89203Y81116D01*
X77608Y99282D02*
X79787Y94316D01*
X82466Y89599D01*
X93189Y77438D02*
X97533Y74190D01*
X102188Y71407D01*
X89203Y81116D02*
X93189Y77438D01*
X203378Y5852D02*
X209957Y4285D01*
X230158Y4201D02*
X236750Y5713D01*
X190971Y11185D02*
X197021Y8162D01*
X203378Y5852D01*
X223436Y3455D02*
X230158Y4201D01*
X216672Y3483D02*
X223436Y3455D01*
X209957Y4285D02*
X216672Y3483D01*
X167714Y31828D02*
X174451Y25177D01*
X174554Y25071D02*
X177780Y21630D01*
X152968Y44312D02*
X160351Y38386D01*
X160501Y38259D02*
X167571Y31963D01*
X180103Y19201D02*
X185307Y14880D01*
X190971Y11185D01*
X177780Y21630D02*
X180103Y19201D01*
X77707Y223917D02*
X78012Y222532D01*
X77825Y210881D02*
X78138Y220881D01*
X77708Y209721D02*
X77804Y210573D01*
X76905Y207221D02*
X77496Y208825D01*
X75234Y204818D02*
X76302Y206153D01*
X72890Y203067D02*
X74325Y203995D01*
X69708Y201752D02*
X71345Y202415D01*
X66516Y199823D02*
X69708Y201752D01*
X63668Y197414D02*
X66516Y199823D01*
X61237Y194585D02*
X63668Y197414D01*
X60458Y193317D02*
X61237Y194585D01*
X59711Y191301D02*
X60458Y193317D01*
X58356Y186433D02*
X59711Y191301D01*
X57410Y181469D02*
X58356Y186433D01*
X56881Y176443D02*
X57410Y181469D01*
X72680Y126098D02*
X74105Y117162D01*
X74136Y116914D02*
X74554Y112430D01*
X67370Y144076D02*
X70321Y135522D01*
X70416Y135202D02*
X72613Y126424D01*
X74834Y109754D02*
X75951Y104447D01*
X77608Y99282D01*
X74554Y112430D02*
X74834Y109754D01*
X57007Y170867D02*
X58264Y164286D01*
X60382Y157930D01*
X56830Y174065D02*
X56881Y176443D01*
X56830Y174065D02*
X57007Y170867D01*
X63326Y151911D02*
X65185Y149123D01*
X65529Y148482D02*
X67281Y144309D01*
X60382Y157930D02*
X63326Y151911D01*
M02*
