G04*
G04 #@! TF.GenerationSoftware,Altium Limited,Altium Designer,24.4.1 (13)*
G04*
G04 Layer_Color=8388736*
%FSLAX44Y44*%
%MOMM*%
G71*
G04*
G04 #@! TF.SameCoordinates,0AE1F543-7B87-48E8-90D5-0DFDE8F72AC0*
G04*
G04*
G04 #@! TF.FilePolarity,Negative*
G04*
G01*
G75*
G36*
X117000Y153000D02*
X117000Y153000D01*
X119595Y152670D01*
X124714Y151587D01*
X129727Y150091D01*
X134602Y148190D01*
X139305Y145897D01*
X143806Y143228D01*
X148073Y140201D01*
X152079Y136835D01*
X153938Y134995D01*
X154079Y133301D01*
X153881Y129907D01*
X153208Y126574D01*
X152072Y123370D01*
X150496Y120358D01*
X148511Y117598D01*
X146157Y115144D01*
X143482Y113047D01*
X140537Y111347D01*
X137383Y110079D01*
X134081Y109268D01*
X130698Y108929D01*
X129000Y109000D01*
X129000Y109000D01*
X129000Y109000D01*
X127165Y109131D01*
X123560Y109870D01*
X120083Y111073D01*
X116792Y112720D01*
X113744Y114782D01*
X110992Y117225D01*
X108582Y120006D01*
X106555Y123077D01*
X104947Y126387D01*
X103785Y129878D01*
X103088Y133491D01*
X102869Y137165D01*
X103000Y139000D01*
X103137Y140547D01*
X103652Y143611D01*
X104406Y146625D01*
X105393Y149570D01*
X106000Y151000D01*
X107232Y151727D01*
X109914Y152725D01*
X112729Y153237D01*
X115591Y153246D01*
X117000Y153000D01*
D02*
G37*
G36*
X298667Y175372D02*
X301504Y171676D01*
X303789Y167614D01*
X305474Y163270D01*
X306000Y161000D01*
X306360Y159198D01*
X306605Y155529D01*
X306368Y151861D01*
X305655Y148254D01*
X304477Y144772D01*
X302854Y141473D01*
X300815Y138414D01*
X298394Y135648D01*
X295632Y133221D01*
X292578Y131175D01*
X289282Y129546D01*
X285802Y128361D01*
X284000Y128000D01*
X281488Y127458D01*
X276351Y127376D01*
X271295Y128297D01*
X266517Y130187D01*
X262199Y132973D01*
X258507Y136547D01*
X255584Y140773D01*
X253542Y145489D01*
X253000Y148000D01*
X255019Y150688D01*
X259503Y155697D01*
X264400Y160302D01*
X269675Y164470D01*
X275289Y168170D01*
X281199Y171374D01*
X287363Y174059D01*
X293734Y176205D01*
X297000Y177000D01*
X298667Y175372D01*
D02*
G37*
M02*
