G04*
G04 #@! TF.GenerationSoftware,Altium Limited,Altium Designer,24.4.1 (13)*
G04*
G04 Layer_Physical_Order=2*
G04 Layer_Color=16711680*
%FSLAX44Y44*%
%MOMM*%
G71*
G04*
G04 #@! TF.SameCoordinates,0AE1F543-7B87-48E8-90D5-0DFDE8F72AC0*
G04*
G04*
G04 #@! TF.FilePolarity,Positive*
G04*
G01*
G75*
%ADD13C,0.2000*%
%ADD14C,0.8000*%
G04:AMPARAMS|DCode=15|XSize=3.6mm|YSize=3.2mm|CornerRadius=0mm|HoleSize=0mm|Usage=FLASHONLY|Rotation=277.000|XOffset=0mm|YOffset=0mm|HoleType=Round|Shape=Rectangle|*
%AMROTATEDRECTD15*
4,1,4,-1.8074,1.5916,1.3687,1.9816,1.8074,-1.5916,-1.3687,-1.9816,-1.8074,1.5916,0.0*
%
%ADD15ROTATEDRECTD15*%

%ADD16P,1.1314X4X265.0*%
%ADD17P,1.1314X4X385.0*%
G04:AMPARAMS|DCode=18|XSize=1.6mm|YSize=1mm|CornerRadius=0mm|HoleSize=0mm|Usage=FLASHONLY|Rotation=160.000|XOffset=0mm|YOffset=0mm|HoleType=Round|Shape=Rectangle|*
%AMROTATEDRECTD18*
4,1,4,0.9228,0.1962,0.5808,-0.7435,-0.9228,-0.1962,-0.5808,0.7435,0.9228,0.1962,0.0*
%
%ADD18ROTATEDRECTD18*%

%ADD19R,12.0000X6.0000*%
%ADD20C,1.2000*%
G36*
X365830Y403418D02*
X366696Y403056D01*
X367472Y402530D01*
X368129Y401861D01*
X368641Y401075D01*
X368986Y400203D01*
X369069Y399742D01*
X369079Y399716D01*
X369079Y399688D01*
X369708Y396572D01*
X370391Y390253D01*
X370493Y383896D01*
X370015Y377558D01*
X369487Y374423D01*
X369489Y374345D01*
X369465Y374270D01*
X368997Y369871D01*
X367540Y361143D01*
X365569Y352518D01*
X363089Y344024D01*
X361600Y339858D01*
X361591Y339800D01*
X361564Y339749D01*
X360404Y335978D01*
X360397Y335909D01*
X360368Y335847D01*
X358454Y328192D01*
X358450Y328101D01*
X358417Y328015D01*
X357052Y320244D01*
X357054Y320152D01*
X357027Y320065D01*
X356217Y312216D01*
X356224Y312148D01*
X356207Y312081D01*
X356012Y308140D01*
X356023Y308067D01*
X356009Y307995D01*
X356029Y305410D01*
X355857Y300241D01*
X355474Y295086D01*
X354882Y289949D01*
X354493Y287468D01*
X353920Y284824D01*
X353919Y284781D01*
X353903Y284741D01*
X352908Y279273D01*
X352909Y279215D01*
X352890Y279160D01*
X352139Y273654D01*
X352142Y273596D01*
X352126Y273541D01*
X351621Y268006D01*
X351626Y267963D01*
X351615Y267921D01*
X351456Y265157D01*
X351311Y262932D01*
X350752Y258488D01*
X349928Y254085D01*
X348843Y249740D01*
X347500Y245467D01*
X345904Y241282D01*
X344061Y237200D01*
X341977Y233235D01*
X340819Y231319D01*
X340768Y231179D01*
X340681Y231059D01*
X339601Y228693D01*
X339574Y228576D01*
X339513Y228473D01*
X337802Y223564D01*
X337780Y223406D01*
X337716Y223260D01*
X336626Y218176D01*
X336623Y218017D01*
X336579Y217864D01*
X336125Y212685D01*
X336143Y212526D01*
X336117Y212369D01*
X336308Y207174D01*
X336345Y207019D01*
X336339Y206859D01*
X337171Y201727D01*
X337227Y201578D01*
X337241Y201419D01*
X338701Y196430D01*
X338775Y196288D01*
X338808Y196132D01*
X340874Y191362D01*
X340943Y191263D01*
X340979Y191149D01*
X342229Y188869D01*
X342363Y188710D01*
X342456Y188525D01*
X342914Y187939D01*
X343637Y186638D01*
X344148Y185240D01*
X344435Y183781D01*
X344492Y182293D01*
X344316Y180816D01*
X343912Y179384D01*
X343291Y178032D01*
X342878Y177412D01*
X342868Y177386D01*
X342848Y177365D01*
X341863Y175813D01*
X341792Y175631D01*
X341681Y175472D01*
X340205Y172108D01*
X340149Y171856D01*
X340047Y171618D01*
X339277Y168027D01*
X339273Y167768D01*
X339221Y167515D01*
X339189Y163842D01*
X339225Y163651D01*
X339215Y163456D01*
X339474Y161658D01*
X339927Y158072D01*
X340078Y150799D01*
X339464Y143551D01*
X338093Y136407D01*
X335980Y129446D01*
X333148Y122746D01*
X329629Y116379D01*
X325461Y110417D01*
X323076Y107671D01*
X323068Y107658D01*
X323056Y107648D01*
X320985Y105206D01*
X316225Y100920D01*
X312959Y98693D01*
X311805Y99223D01*
X308100Y132570D01*
X309052Y134251D01*
X309087Y134359D01*
X309151Y134452D01*
X311195Y139218D01*
X311219Y139328D01*
X311272Y139428D01*
X312780Y144389D01*
X312791Y144502D01*
X312833Y144607D01*
X313787Y149704D01*
X313785Y149817D01*
X313816Y149927D01*
X314203Y155097D01*
X314190Y155210D01*
X314208Y155321D01*
X314025Y160503D01*
X313999Y160613D01*
X314005Y160727D01*
X313254Y165857D01*
X313216Y165964D01*
X313209Y166077D01*
X311900Y171094D01*
X311850Y171196D01*
X311831Y171308D01*
X311343Y172582D01*
X311273Y172693D01*
X311234Y172820D01*
X311063Y173027D01*
X310920Y173255D01*
X310812Y173331D01*
X310728Y173433D01*
X310490Y173559D01*
X310270Y173715D01*
X310141Y173744D01*
X310025Y173806D01*
X309453Y173978D01*
X309187Y175247D01*
X309226Y175370D01*
X309468Y175642D01*
X309720Y175904D01*
X309732Y175937D01*
X309756Y175963D01*
X309876Y176306D01*
X310008Y176646D01*
X310007Y176681D01*
X310019Y176714D01*
X309999Y177077D01*
X309991Y177441D01*
X309977Y177473D01*
X309975Y177509D01*
X309571Y179075D01*
X309515Y179192D01*
X309492Y179319D01*
X308297Y182325D01*
X308226Y182434D01*
X308187Y182558D01*
X306624Y185389D01*
X306540Y185488D01*
X306485Y185606D01*
X304578Y188218D01*
X304483Y188306D01*
X304414Y188416D01*
X302193Y190768D01*
X302087Y190843D01*
X302005Y190943D01*
X299506Y192997D01*
X299391Y193058D01*
X299297Y193147D01*
X296559Y194869D01*
X296438Y194916D01*
X296333Y194992D01*
X293401Y196357D01*
X293275Y196387D01*
X293161Y196450D01*
X292574Y196638D01*
X292361Y197990D01*
X292371Y198036D01*
X293326Y198674D01*
X293342Y198698D01*
X293366Y198715D01*
X294004Y199690D01*
X294652Y200659D01*
X294657Y200687D01*
X294673Y200711D01*
X327131Y281171D01*
X334729Y278405D01*
X339517Y291561D01*
X320723Y298402D01*
X318344Y291864D01*
X318247Y291747D01*
X318143Y291413D01*
X317952Y291120D01*
X284427Y208016D01*
X279605Y206627D01*
X271349Y203207D01*
X263527Y198884D01*
X256239Y193713D01*
X249575Y187758D01*
X243620Y181094D01*
X238449Y173806D01*
X235940Y169266D01*
X235528Y168736D01*
X235528Y168736D01*
X235500Y168632D01*
X235437Y168545D01*
X230183Y157060D01*
X224044Y159144D01*
X216587Y160627D01*
X209000Y161124D01*
X201413Y160627D01*
X193956Y159144D01*
X186757Y156700D01*
X179938Y153337D01*
X173616Y149113D01*
X167900Y144100D01*
X162887Y138384D01*
X158663Y132062D01*
X155300Y125243D01*
X152856Y118044D01*
X151373Y110587D01*
X150876Y103000D01*
X151373Y95413D01*
X152856Y87956D01*
X155300Y80757D01*
X158663Y73938D01*
X162887Y67616D01*
X167900Y61900D01*
X173616Y56887D01*
X179938Y52663D01*
X186757Y49300D01*
X193956Y46856D01*
X201413Y45373D01*
X209000Y44876D01*
X216587Y45373D01*
X224044Y46856D01*
X231243Y49300D01*
X238062Y52663D01*
X244384Y56887D01*
X250100Y61900D01*
X255113Y67616D01*
X259337Y73938D01*
X262700Y80757D01*
X265144Y87956D01*
X266627Y95413D01*
X267124Y103000D01*
X266627Y110587D01*
X265144Y118044D01*
X262700Y125243D01*
X259337Y132062D01*
X255113Y138384D01*
X250100Y144100D01*
X244384Y149113D01*
X241028Y151356D01*
X245726Y161625D01*
X245745Y161644D01*
X245922Y161769D01*
X247287Y161985D01*
X257446Y154366D01*
X257577Y154304D01*
X257688Y154210D01*
X257933Y154133D01*
X258164Y154022D01*
X258309Y154014D01*
X258447Y153971D01*
X258780Y153934D01*
X259882Y153200D01*
X259920Y153145D01*
X260043Y152814D01*
X260769Y149166D01*
X262276Y145526D01*
X264465Y142251D01*
X267251Y139465D01*
X269112Y138222D01*
X269251Y137942D01*
X269354Y137482D01*
X269321Y136681D01*
X269236Y136437D01*
X269118Y136207D01*
X269107Y136065D01*
X269060Y135930D01*
X269074Y135672D01*
X269053Y135414D01*
X273853Y93821D01*
X273853Y93820D01*
X273853Y93819D01*
X273973Y93447D01*
X274096Y93064D01*
X274097Y93063D01*
X274097Y93062D01*
X274347Y92768D01*
X274611Y92457D01*
X274612Y92457D01*
X274613Y92456D01*
X275351Y91872D01*
X275457Y91010D01*
X276619Y91152D01*
X276895Y91130D01*
X277291Y91099D01*
X277292Y91099D01*
X277293Y91099D01*
X300145Y93787D01*
X300541Y92555D01*
X299488Y91975D01*
X299383Y91887D01*
X299257Y91832D01*
X294988Y88847D01*
X294862Y88716D01*
X294707Y88619D01*
X290904Y85061D01*
X290798Y84912D01*
X290658Y84795D01*
X287397Y80733D01*
X287313Y80572D01*
X287191Y80436D01*
X284539Y75953D01*
X284478Y75781D01*
X284377Y75629D01*
X282386Y70816D01*
X282351Y70637D01*
X282272Y70473D01*
X280983Y65426D01*
X280973Y65244D01*
X280918Y65070D01*
X280357Y59892D01*
X280369Y59755D01*
X280342Y59621D01*
X280339Y57141D01*
X280006Y53837D01*
X278574Y47092D01*
X276419Y40542D01*
X273566Y34265D01*
X271811Y31306D01*
X270035Y28354D01*
X265817Y22880D01*
X261000Y17925D01*
X255647Y13555D01*
X249828Y9827D01*
X243622Y6790D01*
X237107Y4484D01*
X230372Y2939D01*
X223504Y2176D01*
X216594Y2204D01*
X209732Y3024D01*
X203010Y4625D01*
X196515Y6985D01*
X190334Y10074D01*
X184547Y13850D01*
X179230Y18264D01*
X176849Y20754D01*
X173621Y24197D01*
X173581Y24226D01*
X173553Y24267D01*
X166816Y30918D01*
X166760Y30955D01*
X166720Y31008D01*
X159651Y37305D01*
X159594Y37338D01*
X159551Y37389D01*
X152167Y43314D01*
X152108Y43345D01*
X152063Y43394D01*
X144385Y48932D01*
X144325Y48960D01*
X144277Y49006D01*
X136325Y54143D01*
X136263Y54167D01*
X136213Y54211D01*
X128007Y58932D01*
X127944Y58954D01*
X127892Y58995D01*
X119455Y63289D01*
X119407Y63302D01*
X119366Y63331D01*
X115068Y65314D01*
X114816Y65375D01*
X114580Y65482D01*
X111876Y66115D01*
X106625Y67930D01*
X101589Y70276D01*
X96821Y73127D01*
X92371Y76454D01*
X88287Y80220D01*
X84613Y84388D01*
X81387Y88911D01*
X78643Y93741D01*
X76410Y98829D01*
X74714Y104119D01*
X73570Y109556D01*
X73282Y112305D01*
X72863Y116796D01*
X72839Y116876D01*
X72842Y116961D01*
X71417Y125897D01*
X71378Y126002D01*
X71373Y126114D01*
X69176Y134892D01*
X69128Y134993D01*
X69113Y135105D01*
X66161Y143659D01*
X66119Y143731D01*
X66102Y143814D01*
X64350Y147987D01*
X64214Y148189D01*
X64121Y148414D01*
X62215Y151272D01*
X59197Y157444D01*
X57024Y163962D01*
X55735Y170711D01*
X55550Y174043D01*
X55604Y176524D01*
X56144Y181656D01*
X57110Y186724D01*
X58494Y191695D01*
X59303Y193879D01*
X60201Y195341D01*
X62765Y198324D01*
X65767Y200865D01*
X69134Y202899D01*
X70895Y203613D01*
X71644Y203871D01*
X71909Y204027D01*
X72195Y204140D01*
X73630Y205069D01*
X73923Y205354D01*
X74236Y205617D01*
X75304Y206952D01*
X75492Y207314D01*
X75705Y207663D01*
X76296Y209267D01*
X76344Y209571D01*
X76437Y209864D01*
X76533Y210716D01*
X76524Y210819D01*
X76548Y210920D01*
X76860Y220920D01*
X76842Y221029D01*
X76857Y221138D01*
X76819Y221847D01*
X76767Y222049D01*
X76763Y222257D01*
X76458Y223642D01*
X76347Y223895D01*
X76282Y224164D01*
X75687Y225452D01*
X75524Y225675D01*
X75403Y225924D01*
X74545Y227053D01*
X74389Y227191D01*
X74269Y227361D01*
X73753Y227850D01*
X73650Y227915D01*
X73569Y228008D01*
X71519Y229611D01*
X71494Y229623D01*
X71476Y229643D01*
X67309Y232761D01*
X67277Y232777D01*
X67252Y232803D01*
X63000Y235804D01*
X62967Y235819D01*
X62942Y235844D01*
X58608Y238727D01*
X58583Y238737D01*
X58563Y238755D01*
X56469Y240086D01*
X53534Y242367D01*
X47780Y247448D01*
X42356Y252878D01*
X37282Y258638D01*
X32578Y264703D01*
X28263Y271051D01*
X24354Y277656D01*
X20865Y284493D01*
X19338Y288014D01*
X19324Y288035D01*
X19318Y288060D01*
X18058Y290814D01*
X18029Y290855D01*
X18016Y290903D01*
X15286Y296310D01*
X15244Y296362D01*
X15223Y296425D01*
X12218Y301684D01*
X12175Y301734D01*
X12150Y301796D01*
X8878Y306893D01*
X8844Y306929D01*
X8824Y306975D01*
X7090Y309459D01*
X7018Y309528D01*
X6970Y309617D01*
X6136Y310634D01*
X4713Y312847D01*
X3556Y315211D01*
X2680Y317692D01*
X2097Y320257D01*
X1815Y322874D01*
X1837Y325505D01*
X2163Y328116D01*
X2445Y329269D01*
X2516Y329383D01*
X2617Y329484D01*
X2738Y329559D01*
X2748Y329563D01*
X4149Y329957D01*
X7135Y330486D01*
X10157Y330718D01*
X13189Y330652D01*
X14683Y330471D01*
X16446Y330244D01*
X19946Y329528D01*
X23384Y328555D01*
X26740Y327332D01*
X28342Y326610D01*
X67868Y307716D01*
X73638Y304752D01*
X85040Y298412D01*
X96227Y291700D01*
X107187Y284622D01*
X112548Y280905D01*
X112606Y280880D01*
X112652Y280837D01*
X115226Y279233D01*
X115294Y279207D01*
X115350Y279160D01*
X120670Y276248D01*
X120763Y276219D01*
X120841Y276163D01*
X126365Y273658D01*
X126459Y273636D01*
X126542Y273586D01*
X132238Y271503D01*
X132333Y271488D01*
X132420Y271444D01*
X138256Y269795D01*
X138353Y269787D01*
X138442Y269749D01*
X144386Y268543D01*
X144483Y268542D01*
X144575Y268512D01*
X150592Y267755D01*
X150688Y267762D01*
X150783Y267738D01*
X156840Y267435D01*
X156912Y267446D01*
X156983Y267432D01*
X160008Y267451D01*
X225000Y267451D01*
X225239Y267499D01*
X225482Y267497D01*
X228079Y267998D01*
X228244Y268064D01*
X228420Y268088D01*
X233421Y269793D01*
X233625Y269911D01*
X233849Y269984D01*
X238454Y272577D01*
X238633Y272731D01*
X238839Y272844D01*
X242891Y276236D01*
X243002Y276374D01*
X243145Y276480D01*
X244919Y278441D01*
X245062Y278679D01*
X245244Y278889D01*
X247350Y282583D01*
X252166Y289593D01*
X257552Y296176D01*
X263471Y302284D01*
X266675Y305079D01*
X266678Y305082D01*
X266681Y305084D01*
X267816Y306080D01*
X267858Y306134D01*
X267916Y306172D01*
X270077Y308281D01*
X270129Y308356D01*
X270202Y308412D01*
X272208Y310669D01*
X272254Y310748D01*
X272323Y310808D01*
X274165Y313202D01*
X274195Y313263D01*
X274244Y313311D01*
X275059Y314496D01*
X299015Y345440D01*
X299041Y345490D01*
X299081Y345529D01*
X303248Y351423D01*
X312144Y362793D01*
X321580Y373719D01*
X331534Y384175D01*
X336759Y389155D01*
X336807Y389223D01*
X336874Y389272D01*
X338174Y390682D01*
X340999Y393275D01*
X344031Y395623D01*
X347248Y397710D01*
X350629Y399520D01*
X354148Y401043D01*
X357783Y402266D01*
X361507Y403182D01*
X363400Y403483D01*
X363455Y403503D01*
X363513Y403503D01*
X363972Y403598D01*
X364910Y403601D01*
X365830Y403418D01*
D02*
G37*
G36*
X292540Y194508D02*
X295473Y193144D01*
X298211Y191421D01*
X300710Y189368D01*
X302931Y187016D01*
X304839Y184404D01*
X306402Y181572D01*
X307596Y178566D01*
X308000Y177000D01*
X296396Y168877D01*
X294921Y169149D01*
X293317Y171518D01*
X292000Y173000D01*
X292000Y173000D01*
X291593Y173592D01*
X290470Y174490D01*
X289135Y175024D01*
X287703Y175148D01*
X287000Y175000D01*
X285271Y174632D01*
X281884Y173625D01*
X278587Y172351D01*
X275402Y170818D01*
X272349Y169037D01*
X269447Y167019D01*
X266716Y164776D01*
X264171Y162324D01*
X263000Y161000D01*
X262433Y160367D01*
X261478Y158961D01*
X260718Y157441D01*
X260417Y156562D01*
X259248Y156005D01*
X259002Y155961D01*
X258670Y155998D01*
X248000Y164000D01*
X248000Y164000D01*
X249819Y166870D01*
X253986Y172236D01*
X258645Y177182D01*
X263753Y181662D01*
X269265Y185636D01*
X275129Y189067D01*
X281294Y191924D01*
X287703Y194181D01*
X291000Y195000D01*
X292540Y194508D01*
D02*
G37*
G36*
X309439Y171853D02*
X309927Y170579D01*
X311236Y165562D01*
X311987Y160431D01*
X312170Y155250D01*
X311782Y150079D01*
X310829Y144982D01*
X309321Y140021D01*
X307277Y135256D01*
X306709Y134253D01*
X306000Y133000D01*
X306000Y133000D01*
X310000Y97000D01*
X277055Y93124D01*
X275878Y94055D01*
X271079Y135648D01*
X272276Y136551D01*
X274166Y135769D01*
X278030Y135000D01*
X280000D01*
Y135000D01*
X282118Y135246D01*
X286175Y136555D01*
X289900Y138631D01*
X293147Y141393D01*
X295794Y144736D01*
X297737Y148531D01*
X298903Y152633D01*
X299246Y156882D01*
X299000Y159000D01*
X298605Y160942D01*
X297335Y164625D01*
X308002Y172284D01*
X309439Y171853D01*
D02*
G37*
G36*
X219753Y157059D02*
X226717Y155193D01*
X233378Y152434D01*
X239622Y148829D01*
X245342Y144440D01*
X250440Y139342D01*
X254829Y133622D01*
X258434Y127378D01*
X261193Y120717D01*
X263059Y113753D01*
X264000Y106605D01*
Y103000D01*
Y99395D01*
X263059Y92247D01*
X261193Y85283D01*
X258434Y78622D01*
X254829Y72378D01*
X250440Y66658D01*
X245342Y61560D01*
X239622Y57171D01*
X233378Y53566D01*
X226717Y50807D01*
X219753Y48941D01*
X212605Y48000D01*
X205395D01*
X198247Y48941D01*
X191283Y50807D01*
X184622Y53566D01*
X178378Y57171D01*
X172658Y61560D01*
X167560Y66658D01*
X163171Y72378D01*
X159566Y78622D01*
X156807Y85283D01*
X154941Y92247D01*
X154000Y99395D01*
Y103000D01*
Y106605D01*
X154941Y113753D01*
X156807Y120717D01*
X159566Y127378D01*
X163171Y133622D01*
X167560Y139342D01*
X172658Y144440D01*
X178378Y148829D01*
X184622Y152434D01*
X191283Y155193D01*
X198247Y157059D01*
X205395Y158000D01*
X212605D01*
X219753Y157059D01*
D02*
G37*
%LPC*%
G36*
X315271Y353595D02*
X310483Y340439D01*
X329277Y333599D01*
X334065Y346754D01*
X315271Y353595D01*
D02*
G37*
G36*
X337824Y345386D02*
X333036Y332230D01*
X351830Y325390D01*
X356618Y338546D01*
X337824Y345386D01*
D02*
G37*
G36*
X298170Y306610D02*
X293382Y293454D01*
X312176Y286614D01*
X316964Y299770D01*
X298170Y306610D01*
D02*
G37*
G36*
X110691Y174121D02*
X106957Y174039D01*
X106954Y174038D01*
X106954Y174038D01*
X106757Y173994D01*
X106742Y173994D01*
X106560Y173990D01*
X106558Y173989D01*
X106554Y173989D01*
X106552Y173989D01*
X106371Y173909D01*
X106180Y173866D01*
X106180Y173866D01*
X106177Y173865D01*
X106175Y173864D01*
X106013Y173751D01*
X105831Y173671D01*
X104551Y172777D01*
X104472Y172695D01*
X104373Y172638D01*
X102022Y170576D01*
X101952Y170486D01*
X101861Y170419D01*
X99751Y168110D01*
X99692Y168013D01*
X99609Y167935D01*
X97767Y165408D01*
X97719Y165304D01*
X97644Y165219D01*
X96093Y162503D01*
X96056Y162395D01*
X95992Y162302D01*
X94749Y159432D01*
X94725Y159320D01*
X94671Y159220D01*
X93753Y156230D01*
X93742Y156117D01*
X93699Y156012D01*
X93116Y152939D01*
X93117Y152825D01*
X93087Y152715D01*
X92977Y151288D01*
X92989Y151185D01*
X92985Y151167D01*
X92989Y151129D01*
X92977Y151055D01*
X92979Y150957D01*
X93019Y150783D01*
X93021Y150681D01*
X93027Y150659D01*
X93053Y150600D01*
X93080Y150378D01*
X93132Y150285D01*
X93155Y150181D01*
X93326Y149940D01*
X93470Y149684D01*
X93553Y149618D01*
X93615Y149531D01*
X93804Y149412D01*
X93847Y149363D01*
X93865Y149349D01*
X93956Y149302D01*
X94095Y149193D01*
X94183Y149148D01*
X94255Y149128D01*
X94288Y149107D01*
X94306Y149104D01*
X94394Y149048D01*
X94483Y147654D01*
X93761Y147237D01*
X93669Y147156D01*
X93558Y147103D01*
X93372Y146896D01*
X93163Y146712D01*
X93109Y146602D01*
X93027Y146511D01*
X92935Y146248D01*
X92812Y145998D01*
X92804Y145876D01*
X92763Y145760D01*
X92548Y144255D01*
X92555Y144119D01*
X92528Y143985D01*
X92474Y137857D01*
X92499Y137723D01*
X92490Y137586D01*
X93250Y131506D01*
X93293Y131376D01*
X93301Y131240D01*
X94861Y125314D01*
X94921Y125191D01*
X94948Y125057D01*
X96096Y122269D01*
X96846Y120168D01*
X96911Y120060D01*
X96944Y119938D01*
X98990Y115865D01*
X99068Y115766D01*
X99116Y115650D01*
X101644Y111857D01*
X101733Y111768D01*
X101795Y111658D01*
X104768Y108203D01*
X104867Y108125D01*
X104942Y108024D01*
X106058Y107009D01*
X109856Y72831D01*
X109856Y72829D01*
X109856Y72828D01*
X109976Y72452D01*
X110096Y72072D01*
X110098Y72071D01*
X110098Y72069D01*
X110348Y71774D01*
X110609Y71463D01*
X110610Y71463D01*
X110611Y71462D01*
X111784Y70526D01*
X111785Y70526D01*
X111787Y70524D01*
X112149Y70338D01*
X112491Y70161D01*
X112493Y70161D01*
X112494Y70160D01*
X112894Y70127D01*
X113284Y70094D01*
X113285Y70095D01*
X113287Y70095D01*
X146168Y73853D01*
X146177Y73855D01*
X146186Y73855D01*
X146556Y73977D01*
X146926Y74095D01*
X146933Y74101D01*
X146942Y74104D01*
X147236Y74358D01*
X147533Y74610D01*
X147537Y74618D01*
X147544Y74624D01*
X148467Y75806D01*
X148471Y75814D01*
X148478Y75820D01*
X148650Y76168D01*
X148825Y76517D01*
X148826Y76526D01*
X148830Y76534D01*
X148855Y76921D01*
X148884Y77310D01*
X148881Y77319D01*
X148882Y77328D01*
X143502Y118057D01*
X143411Y118324D01*
X143352Y118601D01*
X143284Y118698D01*
X143246Y118810D01*
X143060Y119023D01*
X142899Y119255D01*
X142709Y120024D01*
X142699Y120499D01*
X142764Y120768D01*
X142775Y120791D01*
X144230Y122561D01*
X145000Y124000D01*
X145000Y124000D01*
X145000Y124000D01*
X145985Y125959D01*
X147367Y130121D01*
X148129Y134439D01*
X148256Y138822D01*
X148189Y139389D01*
X148260Y139419D01*
X148480Y139469D01*
X148624Y139571D01*
X148787Y139639D01*
X148891Y139709D01*
X148952Y139770D01*
X149028Y139809D01*
X149070Y139842D01*
X149322Y139947D01*
X149322Y139947D01*
X149640Y140051D01*
X149733Y140102D01*
X149951Y140158D01*
X150004Y140197D01*
X150066Y140218D01*
X150238Y140364D01*
X150333Y140410D01*
X150401Y140460D01*
X150495Y140565D01*
X150588Y140635D01*
X150628Y140680D01*
X150649Y140715D01*
X150672Y140734D01*
X150675Y140740D01*
X150779Y140829D01*
X158476Y150579D01*
X158501Y150628D01*
X158586Y150736D01*
X158652Y150865D01*
X158692Y150915D01*
X158717Y150964D01*
X158726Y150996D01*
X158850Y151173D01*
X158882Y151315D01*
X158948Y151444D01*
X158968Y151699D01*
X159024Y151949D01*
X159000Y152092D01*
X159011Y152238D01*
X158932Y152481D01*
X158889Y152733D01*
X158811Y152856D01*
X158766Y152994D01*
X158626Y153158D01*
X158614Y153190D01*
X158584Y153236D01*
X158541Y153282D01*
X158463Y153405D01*
X158368Y153505D01*
X158368Y153505D01*
X158339Y153551D01*
X156282Y155712D01*
X156188Y155778D01*
X156117Y155867D01*
X151242Y159965D01*
X151142Y160020D01*
X151061Y160101D01*
X145762Y163634D01*
X145656Y163677D01*
X145567Y163749D01*
X139909Y166672D01*
X139800Y166704D01*
X139703Y166765D01*
X136791Y167881D01*
X133453Y169412D01*
X133340Y169439D01*
X133239Y169496D01*
X126136Y171827D01*
X126021Y171841D01*
X125914Y171886D01*
X118594Y173400D01*
X118477Y173401D01*
X118366Y173434D01*
X110922Y174113D01*
X110806Y174101D01*
X110691Y174121D01*
D02*
G37*
%LPD*%
G36*
X118181Y171404D02*
X125500Y169889D01*
X132603Y167558D01*
X136000Y166000D01*
X138973Y164861D01*
X144631Y161937D01*
X149930Y158404D01*
X154805Y154306D01*
X156861Y152145D01*
X156891Y152099D01*
X156986Y151999D01*
X156901Y151891D01*
X156875Y151842D01*
X149178Y142093D01*
X149111Y142042D01*
X149071Y141997D01*
X149011Y141990D01*
X148693Y141887D01*
X148620Y141846D01*
X148538Y141830D01*
X148154Y141670D01*
X148083Y141622D01*
X148001Y141598D01*
X147755Y141402D01*
X147650Y141332D01*
X146427Y142491D01*
X143043Y145201D01*
X139445Y147618D01*
X135657Y149726D01*
X131707Y151510D01*
X127621Y152957D01*
X123428Y154059D01*
X119159Y154806D01*
X117000Y155000D01*
X116383Y154481D01*
X115256Y153328D01*
X114249Y152068D01*
X113370Y150716D01*
X113000Y150000D01*
X111857Y147914D01*
X111239Y145951D01*
X109888Y145298D01*
X95124Y150953D01*
X95106Y150967D01*
X95018Y151011D01*
X95015Y151110D01*
X95010Y151132D01*
X95120Y152559D01*
X95702Y155632D01*
X96621Y158621D01*
X97863Y161491D01*
X99415Y164207D01*
X101257Y166734D01*
X103366Y169043D01*
X105718Y171105D01*
X106998Y171999D01*
X107000Y172000D01*
X107002Y172000D01*
X110737Y172083D01*
X118181Y171404D01*
D02*
G37*
G36*
X110163Y140935D02*
X109913Y138646D01*
X110330Y133906D01*
X111664Y129339D01*
X113863Y125120D01*
X116843Y121411D01*
X120490Y118355D01*
X122576Y117212D01*
X124014Y116442D01*
X127137Y115493D01*
X130384Y115171D01*
X133632Y115489D01*
X136755Y116434D01*
X139634Y117971D01*
X140086Y118341D01*
X141481Y117790D01*
X146860Y77061D01*
X145937Y75879D01*
X113055Y72121D01*
X111883Y73056D01*
X108000Y108000D01*
X106314Y109533D01*
X103341Y112988D01*
X100813Y116781D01*
X98766Y120854D01*
X98000Y123000D01*
X98000Y123000D01*
X98000Y123000D01*
X96833Y125833D01*
X95273Y131759D01*
X94513Y137839D01*
X94567Y143967D01*
X94782Y145472D01*
X96433Y146427D01*
X110163Y140935D01*
D02*
G37*
D13*
X264000Y103000D02*
G03*
X264000Y103000I-55000J0D01*
G01*
D14*
X289000Y203000D02*
G03*
X241000Y166000I16925J-71592D01*
G01*
X241000Y166000D02*
X241000Y166000D01*
X234478Y151743D02*
X241000Y166000D01*
X219204Y118358D02*
X234478Y151743D01*
X209000Y103000D02*
X219204Y118358D01*
X289000Y203000D02*
X323625Y288832D01*
X327726Y288403D01*
X325613Y288108D02*
X327726Y288403D01*
D15*
X290885Y113054D02*
D03*
X209000Y103000D02*
D03*
X127115Y92946D02*
D03*
D16*
X300680Y180697D02*
D03*
X313320Y191303D02*
D03*
D17*
X102752Y154178D02*
D03*
X87247Y159822D02*
D03*
D18*
X322274Y343597D02*
D03*
X313724Y320104D02*
D03*
X305173Y296612D02*
D03*
X344827Y335388D02*
D03*
X336276Y311896D02*
D03*
X327726Y288403D02*
D03*
D19*
X180000Y235000D02*
D03*
D20*
X269000Y176000D02*
D03*
X137000Y157000D02*
D03*
X301000Y140000D02*
D03*
X109000Y118000D02*
D03*
M02*
