<svg xmlns="http://www.w3.org/2000/svg" xmlns:v="https://svgstorm.com"
viewBox = "0 0 114 124"
width="114"
height="124">
<g fill="None" fill-opacity="0.0" stroke="#FEFEFE" stroke-opacity="1.00" stroke-width="0.3"><path d="
M 0.00 44.00 
C 9.08 39.25 15.88 35.77 24.00 30.00
C 24.88 32.24 27.72 33.09 30.00 31.00
C 30.47 35.19 31.70 34.57 34.00 32.00
C 31.51 36.71 35.35 36.02 38.00 37.00
C 33.19 39.71 27.69 42.52 24.00 37.00
C 19.40 49.35 24.96 61.53 31.00 72.00
C 34.53 71.82 36.78 71.51 40.00 70.00
C 41.38 62.56 27.10 63.32 36.00 58.00
C 32.38 57.34 29.91 55.10 31.00 51.00
C 31.02 56.18 39.43 59.46 41.00 53.00
C 43.67 53.87 40.98 57.38 44.00 57.00
C 44.47 53.74 44.15 49.80 40.00 50.00
C 40.00 47.46 42.60 45.74 42.00 43.00
C 44.78 48.22 49.30 48.86 56.00 51.00
C 56.08 48.41 59.10 46.52 56.00 45.00
C 61.17 46.38 61.81 40.91 64.00 38.00
C 58.40 39.10 44.52 27.54 46.00 36.00
C 38.02 34.99 41.65 27.52 38.68 22.32 C 35.71 17.12 31.19 10.86 28.00 19.00
C 26.97 15.89 29.69 14.23 31.00 12.00
C 35.23 14.45 39.88 20.63 44.68 17.68 C 49.48 14.72 55.18 9.05 58.00 15.00
C 61.89 7.83 70.61 12.94 76.00 16.00
C 74.91 24.72 83.85 25.67 89.02 28.98 C 94.20 32.29 105.59 16.91 105.66 26.68 C 105.73 36.46 94.98 60.90 114.00 59.00
L 114.00 0.00
L 0.00 0.00
L 0.00 44.00
M 112.00 17.00 
C 110.38 21.24 107.18 16.11 112.00 17.00
M 40.00 45.00 
C 38.08 50.59 34.19 45.16 40.00 45.00
M 35.00 54.00 
C 37.63 51.63 35.58 51.49 35.00 49.00
C 39.21 47.41 38.79 54.79 35.00 54.00 Z"/>
</g>
<g fill="None" fill-opacity="0.0" stroke="#000000" stroke-opacity="1.00" stroke-width="0.3"><path d="
M 0.00 44.00 
L 0.00 96.00
C 8.46 98.62 21.38 95.82 27.00 102.00
C 30.75 98.60 31.77 105.07 37.00 104.00
C 31.52 100.45 46.83 100.72 46.00 106.00
C 38.30 105.63 30.40 104.70 23.25 105.40 C 16.10 106.09 23.16 111.04 24.00 112.00
C 21.23 114.79 15.72 109.78 15.00 114.00
C 18.62 113.42 23.42 115.02 26.00 118.00
C 25.93 113.93 27.26 111.27 27.00 107.00
C 30.54 107.39 35.22 109.39 34.00 114.00
C 32.65 111.50 26.42 110.95 28.00 116.00
C 29.43 113.90 32.91 114.14 31.00 117.00
C 34.14 113.52 35.08 119.72 40.00 118.00
C 32.75 115.47 40.18 116.63 40.00 112.00
C 42.44 113.52 40.36 115.68 42.00 117.00
C 49.03 111.85 58.27 117.72 67.08 115.94 C 75.89 114.15 88.09 106.65 95.00 114.00
C 98.37 105.76 107.88 110.44 114.00 113.00
L 114.00 59.00
C 94.98 60.90 105.73 36.46 105.66 26.68 C 105.59 16.91 94.20 32.29 89.02 28.98 C 83.85 25.67 74.91 24.72 76.00 16.00
C 70.61 12.94 61.89 7.83 58.00 15.00
C 55.18 9.05 49.48 14.72 44.68 17.68 C 39.88 20.63 35.23 14.45 31.00 12.00
C 29.69 14.23 26.97 15.89 28.00 19.00
C 31.19 10.86 35.71 17.12 38.68 22.32 C 41.65 27.52 38.02 34.99 46.00 36.00
C 44.52 27.54 58.40 39.10 64.00 38.00
C 61.81 40.91 61.17 46.38 56.00 45.00
C 59.10 46.52 56.08 48.41 56.00 51.00
C 49.30 48.86 44.78 48.22 42.00 43.00
C 42.60 45.74 40.00 47.46 40.00 50.00
C 44.15 49.80 44.47 53.74 44.00 57.00
C 40.98 57.38 43.67 53.87 41.00 53.00
C 39.43 59.46 31.02 56.18 31.00 51.00
C 29.91 55.10 32.38 57.34 36.00 58.00
C 27.10 63.32 41.38 62.56 40.00 70.00
C 36.78 71.51 34.53 71.82 31.00 72.00
C 24.96 61.53 19.40 49.35 24.00 37.00
C 27.69 42.52 33.19 39.71 38.00 37.00
C 35.35 36.02 31.51 36.71 34.00 32.00
C 31.70 34.57 30.47 35.19 30.00 31.00
C 27.72 33.09 24.88 32.24 24.00 30.00
C 15.88 35.77 9.08 39.25 0.00 44.00
M 73.00 53.00 
C 73.21 46.81 68.94 39.78 77.03 37.03 C 85.11 34.27 87.01 39.20 83.08 45.08 C 79.14 50.96 76.86 49.43 73.00 53.00
M 59.00 62.00 
C 62.31 61.72 61.31 58.55 63.00 57.00
C 65.74 61.83 56.61 68.07 55.08 60.92 C 53.56 53.77 62.68 53.65 59.00 62.00
M 69.00 59.00 
C 70.82 65.69 57.83 73.81 57.00 65.00
C 60.31 65.81 64.77 64.04 64.00 60.00
C 66.37 62.54 66.67 58.72 69.00 59.00
M 93.00 74.00 
C 86.52 72.65 91.82 67.20 93.00 74.00
M 54.00 108.00 
C 52.09 110.49 50.02 107.19 54.00 108.00
M 61.00 110.00 
C 56.56 111.79 55.62 105.18 61.00 110.00 Z"/>
</g>
<g fill="None" fill-opacity="0.0" stroke="#000000" stroke-opacity="1.00" stroke-width="0.3"><path d="
M 112.00 17.00 
C 107.18 16.11 110.38 21.24 112.00 17.00 Z"/>
</g>
<g fill="None" fill-opacity="0.0" stroke="#FFFFFF" stroke-opacity="1.00" stroke-width="0.3"><path d="
M 73.00 53.00 
C 76.86 49.43 79.14 50.96 83.08 45.08 C 87.01 39.20 85.11 34.27 77.03 37.03 C 68.94 39.78 73.21 46.81 73.00 53.00 Z"/>
</g>
<g fill="None" fill-opacity="0.0" stroke="#090909" stroke-opacity="1.00" stroke-width="0.3"><path d="
M 40.00 45.00 
C 34.19 45.16 38.08 50.59 40.00 45.00 Z"/>
</g>
<g fill="None" fill-opacity="0.0" stroke="#020202" stroke-opacity="1.00" stroke-width="0.3"><path d="
M 35.00 54.00 
C 38.79 54.79 39.21 47.41 35.00 49.00
C 35.58 51.49 37.63 51.63 35.00 54.00 Z"/>
</g>
<g fill="None" fill-opacity="0.0" stroke="#FFFFFF" stroke-opacity="1.00" stroke-width="0.3"><path d="
M 59.00 62.00 
C 62.68 53.65 53.56 53.77 55.08 60.92 C 56.61 68.07 65.74 61.83 63.00 57.00
C 61.31 58.55 62.31 61.72 59.00 62.00 Z"/>
</g>
<g fill="None" fill-opacity="0.0" stroke="#FFFFFF" stroke-opacity="1.00" stroke-width="0.3"><path d="
M 69.00 59.00 
C 66.67 58.72 66.37 62.54 64.00 60.00
C 64.77 64.04 60.31 65.81 57.00 65.00
C 57.83 73.81 70.82 65.69 69.00 59.00 Z"/>
</g>
<g fill="None" fill-opacity="0.0" stroke="#FFFFFF" stroke-opacity="1.00" stroke-width="0.3"><path d="
M 93.00 74.00 
C 91.82 67.20 86.52 72.65 93.00 74.00 Z"/>
</g>
<g fill="None" fill-opacity="0.0" stroke="#FDFDFD" stroke-opacity="1.00" stroke-width="0.3"><path d="
M 0.00 124.00 
L 104.00 124.00
C 100.86 116.74 107.13 113.24 114.00 115.00
L 114.00 113.00
C 107.88 110.44 98.37 105.76 95.00 114.00
C 88.09 106.65 75.89 114.15 67.08 115.94 C 58.27 117.72 49.03 111.85 42.00 117.00
C 40.36 115.68 42.44 113.52 40.00 112.00
C 40.18 116.63 32.75 115.47 40.00 118.00
C 35.08 119.72 34.14 113.52 31.00 117.00
C 32.91 114.14 29.43 113.90 28.00 116.00
C 26.42 110.95 32.65 111.50 34.00 114.00
C 35.22 109.39 30.54 107.39 27.00 107.00
C 27.26 111.27 25.93 113.93 26.00 118.00
C 23.42 115.02 18.62 113.42 15.00 114.00
C 15.72 109.78 21.23 114.79 24.00 112.00
C 23.16 111.04 16.10 106.09 23.25 105.40 C 30.40 104.70 38.30 105.63 46.00 106.00
C 46.83 100.72 31.52 100.45 37.00 104.00
C 31.77 105.07 30.75 98.60 27.00 102.00
C 21.38 95.82 8.46 98.62 0.00 96.00
L 0.00 124.00
M 54.00 118.00 
C 50.73 117.30 48.23 119.43 45.00 119.00
C 46.31 115.97 52.06 116.39 54.00 118.00 Z"/>
</g>
<g fill="None" fill-opacity="0.0" stroke="#FFFFFF" stroke-opacity="1.00" stroke-width="0.3"><path d="
M 54.00 108.00 
C 50.02 107.19 52.09 110.49 54.00 108.00 Z"/>
</g>
<g fill="None" fill-opacity="0.0" stroke="#CFCFCF" stroke-opacity="1.00" stroke-width="0.3"><path d="
M 61.00 110.00 
C 55.62 105.18 56.56 111.79 61.00 110.00 Z"/>
</g>
<g fill="None" fill-opacity="0.0" stroke="#000000" stroke-opacity="1.00" stroke-width="0.3"><path d="
M 104.00 124.00 
L 114.00 124.00
L 114.00 115.00
C 107.13 113.24 100.86 116.74 104.00 124.00 Z"/>
</g>
<g fill="None" fill-opacity="0.0" stroke="#000000" stroke-opacity="1.00" stroke-width="0.3"><path d="
M 54.00 118.00 
C 52.06 116.39 46.31 115.97 45.00 119.00
C 48.23 119.43 50.73 117.30 54.00 118.00 Z"/>
</g>
<g fill="#FEFEFE" fill-opacity="1.00" stroke="None">
<path d="
M 0.00 44.00 
C 9.08 39.25 15.88 35.77 24.00 30.00
C 24.88 32.24 27.72 33.09 30.00 31.00
C 30.47 35.19 31.70 34.57 34.00 32.00
C 31.51 36.71 35.35 36.02 38.00 37.00
C 33.19 39.71 27.69 42.52 24.00 37.00
C 19.40 49.35 24.96 61.53 31.00 72.00
C 34.53 71.82 36.78 71.51 40.00 70.00
C 41.38 62.56 27.10 63.32 36.00 58.00
C 32.38 57.34 29.91 55.10 31.00 51.00
C 31.02 56.18 39.43 59.46 41.00 53.00
C 43.67 53.87 40.98 57.38 44.00 57.00
C 44.47 53.74 44.15 49.80 40.00 50.00
C 40.00 47.46 42.60 45.74 42.00 43.00
C 44.78 48.22 49.30 48.86 56.00 51.00
C 56.08 48.41 59.10 46.52 56.00 45.00
C 61.17 46.38 61.81 40.91 64.00 38.00
C 58.40 39.10 44.52 27.54 46.00 36.00
C 38.02 34.99 41.65 27.52 38.68 22.32 C 35.71 17.12 31.19 10.86 28.00 19.00
C 26.97 15.89 29.69 14.23 31.00 12.00
C 35.23 14.45 39.88 20.63 44.68 17.68 C 49.48 14.72 55.18 9.05 58.00 15.00
C 61.89 7.83 70.61 12.94 76.00 16.00
C 74.91 24.72 83.85 25.67 89.02 28.98 C 94.20 32.29 105.59 16.91 105.66 26.68 C 105.73 36.46 94.98 60.90 114.00 59.00
L 114.00 0.00
L 0.00 0.00
L 0.00 44.00
M 112.00 17.00 
C 110.38 21.24 107.18 16.11 112.00 17.00
M 40.00 45.00 
C 38.08 50.59 34.19 45.16 40.00 45.00
M 35.00 54.00 
C 37.63 51.63 35.58 51.49 35.00 49.00
C 39.21 47.41 38.79 54.79 35.00 54.00 Z"/>
</g>
<g fill="#000000" fill-opacity="1.00" stroke="None">
<path d="
M 0.00 44.00 
L 0.00 96.00
C 8.46 98.62 21.38 95.82 27.00 102.00
C 30.75 98.60 31.77 105.07 37.00 104.00
C 31.52 100.45 46.83 100.72 46.00 106.00
C 38.30 105.63 30.40 104.70 23.25 105.40 C 16.10 106.09 23.16 111.04 24.00 112.00
C 21.23 114.79 15.72 109.78 15.00 114.00
C 18.62 113.42 23.42 115.02 26.00 118.00
C 25.93 113.93 27.26 111.27 27.00 107.00
C 30.54 107.39 35.22 109.39 34.00 114.00
C 32.65 111.50 26.42 110.95 28.00 116.00
C 29.43 113.90 32.91 114.14 31.00 117.00
C 34.14 113.52 35.08 119.72 40.00 118.00
C 32.75 115.47 40.18 116.63 40.00 112.00
C 42.44 113.52 40.36 115.68 42.00 117.00
C 49.03 111.85 58.27 117.72 67.08 115.94 C 75.89 114.15 88.09 106.65 95.00 114.00
C 98.37 105.76 107.88 110.44 114.00 113.00
L 114.00 59.00
C 94.98 60.90 105.73 36.46 105.66 26.68 C 105.59 16.91 94.20 32.29 89.02 28.98 C 83.85 25.67 74.91 24.72 76.00 16.00
C 70.61 12.94 61.89 7.83 58.00 15.00
C 55.18 9.05 49.48 14.72 44.68 17.68 C 39.88 20.63 35.23 14.45 31.00 12.00
C 29.69 14.23 26.97 15.89 28.00 19.00
C 31.19 10.86 35.71 17.12 38.68 22.32 C 41.65 27.52 38.02 34.99 46.00 36.00
C 44.52 27.54 58.40 39.10 64.00 38.00
C 61.81 40.91 61.17 46.38 56.00 45.00
C 59.10 46.52 56.08 48.41 56.00 51.00
C 49.30 48.86 44.78 48.22 42.00 43.00
C 42.60 45.74 40.00 47.46 40.00 50.00
C 44.15 49.80 44.47 53.74 44.00 57.00
C 40.98 57.38 43.67 53.87 41.00 53.00
C 39.43 59.46 31.02 56.18 31.00 51.00
C 29.91 55.10 32.38 57.34 36.00 58.00
C 27.10 63.32 41.38 62.56 40.00 70.00
C 36.78 71.51 34.53 71.82 31.00 72.00
C 24.96 61.53 19.40 49.35 24.00 37.00
C 27.69 42.52 33.19 39.71 38.00 37.00
C 35.35 36.02 31.51 36.71 34.00 32.00
C 31.70 34.57 30.47 35.19 30.00 31.00
C 27.72 33.09 24.88 32.24 24.00 30.00
C 15.88 35.77 9.08 39.25 0.00 44.00
M 73.00 53.00 
C 73.21 46.81 68.94 39.78 77.03 37.03 C 85.11 34.27 87.01 39.20 83.08 45.08 C 79.14 50.96 76.86 49.43 73.00 53.00
M 59.00 62.00 
C 62.31 61.72 61.31 58.55 63.00 57.00
C 65.74 61.83 56.61 68.07 55.08 60.92 C 53.56 53.77 62.68 53.65 59.00 62.00
M 69.00 59.00 
C 70.82 65.69 57.83 73.81 57.00 65.00
C 60.31 65.81 64.77 64.04 64.00 60.00
C 66.37 62.54 66.67 58.72 69.00 59.00
M 93.00 74.00 
C 86.52 72.65 91.82 67.20 93.00 74.00
M 54.00 108.00 
C 52.09 110.49 50.02 107.19 54.00 108.00
M 61.00 110.00 
C 56.56 111.79 55.62 105.18 61.00 110.00 Z"/>
</g>
<g fill="#000000" fill-opacity="1.00" stroke="None">
<path d="
M 112.00 17.00 
C 107.18 16.11 110.38 21.24 112.00 17.00 Z"/>
</g>
<g fill="#FFFFFF" fill-opacity="1.00" stroke="None">
<path d="
M 73.00 53.00 
C 76.86 49.43 79.14 50.96 83.08 45.08 C 87.01 39.20 85.11 34.27 77.03 37.03 C 68.94 39.78 73.21 46.81 73.00 53.00 Z"/>
</g>
<g fill="#090909" fill-opacity="1.00" stroke="None">
<path d="
M 40.00 45.00 
C 34.19 45.16 38.08 50.59 40.00 45.00 Z"/>
</g>
<g fill="#020202" fill-opacity="1.00" stroke="None">
<path d="
M 35.00 54.00 
C 38.79 54.79 39.21 47.41 35.00 49.00
C 35.58 51.49 37.63 51.63 35.00 54.00 Z"/>
</g>
<g fill="#FFFFFF" fill-opacity="1.00" stroke="None">
<path d="
M 59.00 62.00 
C 62.68 53.65 53.56 53.77 55.08 60.92 C 56.61 68.07 65.74 61.83 63.00 57.00
C 61.31 58.55 62.31 61.72 59.00 62.00 Z"/>
</g>
<g fill="#FFFFFF" fill-opacity="1.00" stroke="None">
<path d="
M 69.00 59.00 
C 66.67 58.72 66.37 62.54 64.00 60.00
C 64.77 64.04 60.31 65.81 57.00 65.00
C 57.83 73.81 70.82 65.69 69.00 59.00 Z"/>
</g>
<g fill="#FFFFFF" fill-opacity="1.00" stroke="None">
<path d="
M 93.00 74.00 
C 91.82 67.20 86.52 72.65 93.00 74.00 Z"/>
</g>
<g fill="#FDFDFD" fill-opacity="1.00" stroke="None">
<path d="
M 0.00 124.00 
L 104.00 124.00
C 100.86 116.74 107.13 113.24 114.00 115.00
L 114.00 113.00
C 107.88 110.44 98.37 105.76 95.00 114.00
C 88.09 106.65 75.89 114.15 67.08 115.94 C 58.27 117.72 49.03 111.85 42.00 117.00
C 40.36 115.68 42.44 113.52 40.00 112.00
C 40.18 116.63 32.75 115.47 40.00 118.00
C 35.08 119.72 34.14 113.52 31.00 117.00
C 32.91 114.14 29.43 113.90 28.00 116.00
C 26.42 110.95 32.65 111.50 34.00 114.00
C 35.22 109.39 30.54 107.39 27.00 107.00
C 27.26 111.27 25.93 113.93 26.00 118.00
C 23.42 115.02 18.62 113.42 15.00 114.00
C 15.72 109.78 21.23 114.79 24.00 112.00
C 23.16 111.04 16.10 106.09 23.25 105.40 C 30.40 104.70 38.30 105.63 46.00 106.00
C 46.83 100.72 31.52 100.45 37.00 104.00
C 31.77 105.07 30.75 98.60 27.00 102.00
C 21.38 95.82 8.46 98.62 0.00 96.00
L 0.00 124.00
M 54.00 118.00 
C 50.73 117.30 48.23 119.43 45.00 119.00
C 46.31 115.97 52.06 116.39 54.00 118.00 Z"/>
</g>
<g fill="#FFFFFF" fill-opacity="1.00" stroke="None">
<path d="
M 54.00 108.00 
C 50.02 107.19 52.09 110.49 54.00 108.00 Z"/>
</g>
<g fill="#CFCFCF" fill-opacity="1.00" stroke="None">
<path d="
M 61.00 110.00 
C 55.62 105.18 56.56 111.79 61.00 110.00 Z"/>
</g>
<g fill="#000000" fill-opacity="1.00" stroke="None">
<path d="
M 104.00 124.00 
L 114.00 124.00
L 114.00 115.00
C 107.13 113.24 100.86 116.74 104.00 124.00 Z"/>
</g>
<g fill="#000000" fill-opacity="1.00" stroke="None">
<path d="
M 54.00 118.00 
C 52.06 116.39 46.31 115.97 45.00 119.00
C 48.23 119.43 50.73 117.30 54.00 118.00 Z"/>
</g>
</svg>